<svg width="1964" height="1768" viewBox="0 0 1964 1768" fill="none" xmlns="http://www.w3.org/2000/svg">
<rect width="1964" height="1768" fill="white"/>
<rect x="620" width="436" height="20" fill="black"/>
<rect x="1056" y="20" width="429" height="20" transform="rotate(90 1056 20)" fill="black"/>
<rect x="1056" y="429" width="908" height="20" fill="black"/>
<path fill-rule="evenodd" clip-rule="evenodd" d="M1964 663V449H1944V659.26L1730.15 1665.36L1750.04 1669.58L1963.99 663.002L1963.98 663H1964Z" fill="black"/>
<rect x="640" y="20" width="355" height="20" transform="rotate(90 640 20)" fill="black"/>
<rect x="20" y="375" width="309" height="20" transform="rotate(90 20 375)" fill="black"/>
<rect x="20" y="664" width="252" height="20" fill="black"/>
<rect y="1175" width="252" height="20" fill="black"/>
<rect x="433" y="1265" width="181" height="6" transform="rotate(90 433 1265)" fill="black"/>
<rect x="343" y="1265" width="181" height="6" transform="rotate(90 343 1265)" fill="black"/>
<rect x="515" y="1265" width="181" height="6" transform="rotate(90 515 1265)" fill="black"/>
<path d="M272 684V1195H252L252 684H272Z" fill="black"/>
<path d="M20 1195L20 1466H0L0 1195H20Z" fill="black"/>
<rect y="355" width="620" height="20" fill="black"/>
<path fill-rule="evenodd" clip-rule="evenodd" d="M698.17 1446H20V1466H699V1446.18L698.17 1446ZM978.079 1511L1138.13 1545.02L1136.05 1554.8L976 1520.78L978.079 1511Z" fill="black"/>
<rect x="698.158" y="1446" width="287.67" height="20" transform="rotate(12 698.158 1446)" fill="black"/>
<rect x="1138.62" y="1539.62" width="625.069" height="20" transform="rotate(12 1138.62 1539.62)" fill="black"/>
<path fill-rule="evenodd" clip-rule="evenodd" d="M720 1259H590V1265H720V1259ZM826.572 1283.72L803.494 1278.81L803.125 1280.78L826.203 1285.69L826.572 1283.72Z" fill="black"/>
<rect width="85.7238" height="5.93634" transform="matrix(0.978148 0.207912 -0.184423 0.982847 720.095 1259)" fill="black"/>
<rect width="23.6314" height="2" transform="matrix(0.978148 0.207912 -0.184423 0.982847 854.312 1289.58)" fill="black"/>
<rect width="28.8804" height="5.93634" transform="matrix(0.978148 0.207912 -0.184423 0.982847 826.636 1281.65)" fill="black"/>
<rect width="24.5717" height="2" transform="matrix(0.978148 0.207912 -0.184423 0.982847 883.106 1295.58)" fill="black"/>
<rect width="5.95454" height="5.93634" transform="matrix(0.978148 0.207912 -0.184423 0.982847 877.73 1292.5)" fill="black"/>
<rect width="23.2231" height="2" transform="matrix(0.978148 0.207912 -0.184423 0.982847 956.518 1311.23)" fill="black"/>
<rect width="50.6929" height="5.93634" transform="matrix(0.978148 0.207912 -0.184423 0.982847 907.421 1298.81)" fill="black"/>
<rect width="30.8196" height="5.93634" transform="matrix(0.978148 0.207912 -0.184423 0.982847 979.502 1314.13)" fill="black"/>
<rect width="24.6218" height="2" transform="matrix(0.978148 0.207912 -0.184423 0.982847 1371.5 1399.35)" fill="black"/>
<rect width="191.338" height="5.93634" transform="matrix(0.978148 0.207912 -0.184423 0.982847 1184.86 1357.79)" fill="black"/>
<rect width="27.8577" height="2" transform="matrix(0.978148 0.207912 -0.184423 0.982847 1558.58 1439.12)" fill="black"/>
<rect width="166.908" height="5.93634" transform="matrix(0.978148 0.207912 -0.184423 0.982847 1395.71 1402.61)" fill="black"/>
<rect width="187.484" height="5.93634" transform="matrix(0.978148 0.207912 -0.184423 0.982847 1586.06 1443.07)" fill="black"/>
<rect x="412" y="1259" width="62" height="6" fill="black"/>
<rect x="506" y="1259" width="52" height="6" fill="black"/>
<rect x="202" y="1259" width="186" height="6" fill="black"/>
<rect x="120" y="1259" width="58" height="6" fill="black"/>
<rect x="178" y="1261" width="24" height="2" fill="black"/>
<rect x="388" y="1261" width="24" height="2" fill="black"/>
<rect x="474" y="1261" width="32" height="2" fill="black"/>
<rect x="558" y="1261" width="32" height="2" fill="black"/>
<rect x="1307.07" y="1287.89" width="127.488" height="5.95064" transform="rotate(12 1307.07 1287.89)" fill="black"/>
<rect x="1245.75" y="1274.95" width="25.0481" height="5.95064" transform="rotate(12 1245.75 1274.95)" fill="black"/>
<rect x="1196.04" y="1264.38" width="15.5467" height="5.95064" transform="rotate(12 1196.04 1264.38)" fill="black"/>
<rect x="1210.82" y="1269.57" width="35.299" height="2" transform="rotate(12 1210.82 1269.57)" fill="black"/>
<rect x="1269.73" y="1282.07" width="37.7729" height="2" transform="rotate(12 1269.73 1282.07)" fill="black"/>
<rect x="1220.54" y="1149.06" width="241" height="5.95064" transform="rotate(12 1220.54 1149.06)" fill="black"/>
<rect x="1562.24" y="913.552" width="19.2708" height="2" transform="rotate(12 1562.24 913.552)" fill="black"/>
<rect x="1531.24" y="905" width="32.1532" height="5.95064" transform="rotate(12 1531.24 905)" fill="black"/>
<rect x="1581.21" y="915.621" width="16.5746" height="5.95064" transform="rotate(12 1581.21 915.621)" fill="black"/>
<rect x="1561.05" y="1115.32" width="280.49" height="5.95064" transform="rotate(12 1561.05 1115.32)" fill="black"/>
<rect x="1601.24" y="920" width="281.442" height="5.95064" transform="rotate(12 1601.24 920)" fill="black"/>
<rect x="1044.77" y="1146.11" width="119.638" height="5.95064" transform="rotate(12 1044.77 1146.11)" fill="black"/>
<rect x="737.908" y="1389.42" width="75.6781" height="5.95064" transform="rotate(12 737.908 1389.42)" fill="black"/>
<rect x="858.237" y="1385" width="75.6781" height="5.95064" transform="rotate(12 858.237 1385)" fill="black"/>
<rect x="1455.04" y="1204.92" width="111.94" height="5.95064" transform="rotate(102 1455.04 1204.92)" fill="black"/>
<rect x="1627.79" y="1266.42" width="23.245" height="2" transform="rotate(102 1627.79 1266.42)" fill="black"/>
<rect x="1624.83" y="1289.43" width="158.77" height="5.95064" transform="rotate(102 1624.83 1289.43)" fill="black"/>
<rect x="1656.41" y="1140.84" width="129.039" height="5.95064" transform="rotate(102 1656.41 1140.84)" fill="black"/>
<rect x="1593.68" y="953.384" width="35.4792" height="2" transform="rotate(102 1593.68 953.384)" fill="black"/>
<rect x="1638.71" y="751.971" width="206.833" height="5.95064" transform="rotate(102 1638.71 751.971)" fill="black"/>
<rect x="1588.47" y="988.357" width="135.9" height="5.95064" transform="rotate(102 1588.47 988.357)" fill="black"/>
<rect x="1225.13" y="1156.06" width="112.014" height="5.95064" transform="rotate(102 1225.13 1156.06)" fill="black"/>
<rect x="1188.09" y="1075.24" width="105.082" height="5.95064" transform="rotate(102 1188.09 1075.24)" fill="black"/>
<rect x="1058.94" y="1079.89" width="31.8338" height="5.95064" transform="rotate(102 1058.94 1079.89)" fill="black"/>
<rect x="1047.47" y="1133.22" width="19.0799" height="5.95064" transform="rotate(102 1047.47 1133.22)" fill="black"/>
<rect x="1050.13" y="1110.45" width="22.8531" height="2" transform="rotate(102 1050.13 1110.45)" fill="black"/>
<rect x="1291.12" y="1170.1" width="112.063" height="5.95064" transform="rotate(102 1291.12 1170.1)" fill="black"/>
<rect x="451" y="1189" width="143" height="6" fill="black"/>
<rect x="272" y="1189" width="137" height="6" fill="black"/>
<rect x="272" y="1013" width="131" height="6" fill="black"/>
<rect x="272" y="955" width="143" height="6" fill="black"/>
<rect x="415" y="957" width="32" height="2" fill="black"/>
<rect x="447" y="955" width="141" height="6" fill="black"/>
<rect x="272" y="667" width="358" height="6" fill="black"/>
<rect x="661" y="667" width="149" height="6" fill="black"/>
<rect x="833" y="667" width="56" height="6" fill="black"/>
<rect x="889" y="669" width="24" height="2" fill="black"/>
<rect x="810" y="669" width="23" height="2" fill="black"/>
<rect x="630" y="669" width="31" height="2" fill="black"/>
<rect x="592" y="612" width="34" height="2" transform="rotate(90 592 612)" fill="black"/>
<rect x="913" y="667" width="186" height="6" fill="black"/>
<rect x="743" y="582" width="161" height="6" fill="black"/>
<rect x="910" y="608" width="26" height="6" fill="black"/>
<rect x="1105" y="635" width="42" height="6" fill="black"/>
<rect x="1147" y="637" width="31" height="2" fill="black"/>
<rect x="1178" y="635" width="6" height="6" fill="black"/>
<rect x="594" y="604" width="64" height="6" fill="black"/>
<rect x="594" y="511" width="98" height="6" fill="black"/>
<rect x="678" y="604" width="14" height="6" fill="black"/>
<rect x="658" y="606" width="20" height="2" fill="black"/>
<rect x="908" y="548" width="21" height="2" transform="rotate(90 908 548)" fill="black"/>
<rect x="889" y="534" width="210" height="6" fill="black"/>
<rect x="741" y="534" width="127" height="6" fill="black"/>
<rect x="868" y="536" width="21" height="2" fill="black"/>
<rect x="727" y="454" width="315" height="6" fill="black"/>
<rect x="634" y="387" width="64" height="6" fill="black"/>
<rect x="698" y="454" width="6" height="6" fill="black"/>
<rect x="457" y="1046" width="143" height="6" transform="rotate(90 457 1046)" fill="black"/>
<rect x="457" y="961" width="27" height="6" transform="rotate(90 457 961)" fill="black"/>
<rect x="457" y="1013" width="131" height="6" fill="black"/>
<rect x="455" y="988" width="20" height="2" transform="rotate(90 455 988)" fill="black"/>
<rect x="455" y="1023" width="23" height="2" transform="rotate(90 455 1023)" fill="black"/>
<rect x="457" y="1008" width="15" height="6" transform="rotate(90 457 1008)" fill="black"/>
<rect x="594" y="454" width="158" height="6" transform="rotate(90 594 454)" fill="black"/>
<rect x="594" y="375" width="31" height="6" transform="rotate(90 594 375)" fill="black"/>
<rect x="592" y="406" width="48" height="2" transform="rotate(90 592 406)" fill="black"/>
<rect x="594" y="646" width="250" height="6" transform="rotate(90 594 646)" fill="black"/>
<rect x="592" y="896" width="43" height="2" transform="rotate(90 592 896)" fill="black"/>
<rect x="594" y="939" width="250" height="6" transform="rotate(90 594 939)" fill="black"/>
<rect x="698" y="746" width="334" height="6" transform="rotate(90 698 746)" fill="black"/>
<rect x="1315" y="946" width="27" height="6" transform="rotate(90 1315 946)" fill="black"/>
<rect x="1313" y="915" width="31" height="2" transform="rotate(90 1313 915)" fill="black"/>
<rect x="1315" y="746" width="169" height="6" transform="rotate(90 1315 746)" fill="black"/>
<rect x="1315" y="997" width="86" height="6" transform="rotate(90 1315 997)" fill="black"/>
<rect x="1313" y="973" width="24" height="2" transform="rotate(90 1313 973)" fill="black"/>
<rect x="1372" y="746" width="165" height="6" transform="rotate(90 1372 746)" fill="black"/>
<rect x="1472" y="752" width="153" height="6" transform="rotate(90 1472 752)" fill="black"/>
<rect x="1533" y="752" width="79" height="6" transform="rotate(90 1533 752)" fill="black"/>
<rect x="1572" y="752" width="79" height="6" transform="rotate(90 1572 752)" fill="black"/>
<rect x="1639" y="729" width="23" height="6" transform="rotate(90 1639 729)" fill="black"/>
<rect x="1639" y="686" width="23" height="6" transform="rotate(90 1639 686)" fill="black"/>
<rect x="1637" y="709" width="20" height="2" transform="rotate(90 1637 709)" fill="black"/>
<rect x="1372" y="746" width="18" height="6" fill="black"/>
<rect x="1390" y="748" width="23" height="2" fill="black"/>
<rect x="1413" y="746" width="87" height="6" fill="black"/>
<rect x="1500" y="748" width="23" height="2" fill="black"/>
<rect x="1534" y="748" width="21" height="2" fill="black"/>
<rect x="1592" y="748" width="23" height="2" fill="black"/>
<rect x="1523" y="746" width="11" height="6" fill="black"/>
<rect x="1615" y="746" width="18" height="6" fill="black"/>
<rect x="1555" y="746" width="37" height="6" fill="black"/>
<rect x="1372" y="905" width="37" height="6" fill="black"/>
<rect x="1409" y="907" width="23" height="2" fill="black"/>
<rect x="1495" y="907" width="23" height="2" fill="black"/>
<rect x="1432" y="905" width="63" height="6" fill="black"/>
<rect x="1518" y="905" width="14" height="6" fill="black"/>
<rect x="1372" y="831" width="243" height="6" fill="black"/>
<rect x="1250" y="961" width="113" height="6" transform="rotate(90 1250 961)" fill="black"/>
<rect x="1105" y="752" width="342" height="6" transform="rotate(90 1105 752)" fill="black"/>
<rect x="1105" y="449" width="237" height="6" transform="rotate(90 1105 449)" fill="black"/>
<rect x="749" y="588" width="79" height="6" transform="rotate(90 749 588)" fill="black"/>
<rect x="843" y="588" width="79" height="6" transform="rotate(90 843 588)" fill="black"/>
<rect x="910" y="569" width="45" height="6" transform="rotate(90 910 569)" fill="black"/>
<rect x="910" y="540" width="8" height="6" transform="rotate(90 910 540)" fill="black"/>
<rect x="747" y="460" width="39" height="6" transform="rotate(90 747 460)" fill="black"/>
<rect x="698" y="393" width="217" height="6" transform="rotate(90 698 393)" fill="black"/>
<rect x="783" y="460" width="74" height="6" transform="rotate(90 783 460)" fill="black"/>
<rect x="1042" y="449" width="5" height="6" transform="rotate(90 1042 449)" fill="black"/>
<rect x="747" y="518" width="16" height="6" transform="rotate(90 747 518)" fill="black"/>
<rect x="640" y="375" width="12" height="6" transform="rotate(90 640 375)" fill="black"/>
<rect x="745" y="499" width="19" height="2" transform="rotate(90 745 499)" fill="black"/>
<rect x="704" y="456" width="23" height="2" fill="black"/>
<rect x="936" y="614" width="53" height="6" transform="rotate(90 936 614)" fill="black"/>
<rect x="1190" y="449" width="192" height="6" transform="rotate(90 1190 449)" fill="black"/>
<rect x="1268" y="580" width="61" height="6" transform="rotate(90 1268 580)" fill="black"/>
<rect x="1266" y="641" width="35" height="2" transform="rotate(90 1266 641)" fill="black"/>
<rect x="1268" y="496" width="63" height="6" transform="rotate(90 1268 496)" fill="black"/>
<rect x="1370" y="449" width="162" height="6" transform="rotate(90 1370 449)" fill="black"/>
<rect x="1678" y="449" width="231" height="6" transform="rotate(90 1678 449)" fill="black"/>
<rect x="1268" y="449" width="25" height="6" transform="rotate(90 1268 449)" fill="black"/>
<rect x="1266" y="474" width="22" height="2" transform="rotate(90 1266 474)" fill="black"/>
<rect width="21" height="2" transform="matrix(0 1 1 0 1264 559)" fill="black"/>
<rect x="1392" y="617" width="63" height="6" transform="rotate(90 1392 617)" fill="black"/>
<rect x="1459" y="623" width="57" height="6" transform="rotate(90 1459 623)" fill="black"/>
<rect x="1497" y="623" width="57" height="6" transform="rotate(90 1497 623)" fill="black"/>
<rect x="1268" y="676" width="4" height="6" transform="rotate(90 1268 676)" fill="black"/>
<rect x="919" y="1074" width="180" height="6" fill="black"/>
<rect x="861" y="1074" width="22" height="6" fill="black"/>
<rect x="737" y="1074" width="100" height="6" fill="black"/>
<rect x="698" y="1074" width="16" height="6" fill="black"/>
<rect x="714" y="1076" width="23" height="2" fill="black"/>
<rect x="837" y="1076" width="24" height="2" fill="black"/>
<rect x="883" y="1076" width="36" height="2" fill="black"/>
<rect x="1232" y="1074" width="77" height="6" fill="black"/>
<rect x="1182" y="1074" width="27" height="6" fill="black"/>
<rect x="1209" y="1076" width="23" height="2" fill="black"/>
<rect x="1105" y="955" width="204" height="6" fill="black"/>
<rect x="919" y="746" width="329" height="6" fill="black"/>
<rect x="698" y="746" width="140" height="6" fill="black"/>
<rect x="861" y="746" width="22" height="6" fill="black"/>
<rect x="838" y="748" width="23" height="2" fill="black"/>
<rect x="883" y="748" width="36" height="2" fill="black"/>
<rect x="1279" y="746" width="30" height="6" fill="black"/>
<rect x="1248" y="748" width="31" height="2" fill="black"/>
<rect x="409" y="1046" width="143" height="6" transform="rotate(90 409 1046)" fill="black"/>
<rect x="409" y="961" width="27" height="6" transform="rotate(90 409 961)" fill="black"/>
<rect x="407" y="988" width="20" height="2" transform="rotate(90 407 988)" fill="black"/>
<rect x="409" y="1008" width="15" height="6" transform="rotate(90 409 1008)" fill="black"/>
<rect x="407" y="1023" width="23" height="2" transform="rotate(90 407 1023)" fill="black"/>
<rect x="126" y="1195" width="64" height="6" transform="rotate(90 126 1195)" fill="black"/>
<rect x="841.567" y="1290.57" width="181.852" height="5.95064" transform="rotate(102 841.567 1290.57)" fill="black"/>
<rect x="894.96" y="1398.78" width="87.2467" height="5.95064" transform="rotate(102 894.96 1398.78)" fill="black"/>
<rect x="950.686" y="1313.82" width="88.9154" height="5.95064" transform="rotate(102 950.686 1313.82)" fill="black"/>
<rect x="882.495" y="1299.36" width="89.0324" height="5.95064" transform="rotate(102 882.495 1299.36)" fill="black"/>
<rect x="727.887" y="1437.69" width="14.7488" height="5.95064" transform="rotate(102 727.887 1437.69)" fill="black"/>
<rect x="730.658" y="1415.42" width="22.6136" height="2" transform="rotate(102 730.658 1415.42)" fill="black"/>
<rect x="762.689" y="1273.96" width="145.119" height="5.95064" transform="rotate(102 762.689 1273.96)" fill="black"/>
<rect x="1008.5" y="1326.32" width="181.611" height="5.95064" transform="rotate(102 1008.5 1326.32)" fill="black"/>
<rect x="1189.67" y="1364.59" width="181.849" height="5.95064" transform="rotate(102 1189.67 1364.59)" fill="black"/>
<rect x="1530.63" y="1437.24" width="181.849" height="5.95064" transform="rotate(102 1530.63 1437.24)" fill="black"/>
<rect x="1444" y="680" width="25" height="6" fill="black"/>
<rect x="1469" y="682" width="21" height="2" fill="black"/>
<rect x="1554" y="682" width="21" height="2" fill="black"/>
<rect x="1421" y="682" width="23" height="2" fill="black"/>
<rect x="1490" y="680" width="64" height="6" fill="black"/>
<rect x="1575" y="680" width="123" height="6" fill="black"/>
<rect x="1268" y="611" width="124" height="6" fill="black"/>
<rect x="1392" y="617" width="105" height="6" fill="black"/>
<rect x="1268" y="508" width="96" height="6" fill="black"/>
<rect x="1262" y="680" width="159" height="6" fill="black"/>
</svg>
