<svg width="2464" height="2189" viewBox="0 0 2464 2189" fill="none" xmlns="http://www.w3.org/2000/svg">
<rect width="2464" height="2189" fill="white"/>
<rect x="870" y="250" width="436" height="20" fill="black"/>
<rect x="1306" y="270" width="429" height="20" transform="rotate(90 1306 270)" fill="black"/>
<rect x="1306" y="679" width="908" height="20" fill="black"/>
<path fill-rule="evenodd" clip-rule="evenodd" d="M2214 913V699H2194V909.26L1980.15 1915.36L2000.04 1919.58L2213.99 913.002L2213.98 913H2214Z" fill="black"/>
<rect x="890" y="270" width="355" height="20" transform="rotate(90 890 270)" fill="black"/>
<rect x="270" y="625" width="310" height="20" transform="rotate(90 270 625)" fill="black"/>
<rect x="270" y="915" width="252" height="20" fill="black"/>
<rect x="250" y="1425" width="252" height="20" fill="black"/>
<rect x="270" y="1509" width="131" height="6" fill="black"/>
<rect x="425" y="1509" width="97" height="6" fill="black"/>
<rect x="545" y="1509" width="179" height="6" fill="black"/>
<rect x="754" y="1509" width="126" height="6" fill="black"/>
<rect x="904" y="1509" width="65" height="6" fill="black"/>
<rect x="694" y="1435" width="71" height="6" fill="black"/>
<rect x="522" y="1435" width="143" height="6" fill="black"/>
<rect x="522" y="1363" width="131" height="6" fill="black"/>
<rect x="522" y="1292" width="131" height="6" fill="black"/>
<rect x="707" y="1320" width="91" height="6" fill="black"/>
<rect x="707" y="1265" width="85" height="6" fill="black"/>
<rect x="707" y="1378" width="52" height="6" fill="black"/>
<rect x="522" y="1205" width="322" height="6" fill="black"/>
<rect x="478" y="1515" width="181" height="6" transform="rotate(90 478 1515)" fill="black"/>
<rect x="683" y="1515" width="181" height="6" transform="rotate(90 683 1515)" fill="black"/>
<rect x="765" y="1515" width="181" height="6" transform="rotate(90 765 1515)" fill="black"/>
<rect x="707" y="1211" width="224" height="6" transform="rotate(90 707 1211)" fill="black"/>
<rect x="765" y="1326" width="14" height="6" transform="rotate(90 765 1326)" fill="black"/>
<rect x="765" y="1416" width="19" height="6" transform="rotate(90 765 1416)" fill="black"/>
<rect x="765" y="1363" width="32" height="6" transform="rotate(90 765 1363)" fill="black"/>
<rect x="376" y="1476" width="33" height="6" transform="rotate(90 376 1476)" fill="black"/>
<rect x="376" y="1445" width="13" height="6" transform="rotate(90 376 1445)" fill="black"/>
<rect x="374" y="1458" width="18" height="2" transform="rotate(90 374 1458)" fill="black"/>
<rect x="796" y="1211" width="26" height="2" transform="rotate(90 796 1211)" fill="black"/>
<rect x="657" y="1229" width="23" height="2" transform="rotate(90 657 1229)" fill="black"/>
<rect x="657" y="1319" width="23" height="2" transform="rotate(90 657 1319)" fill="black"/>
<rect x="657" y="1394" width="23" height="2" transform="rotate(90 657 1394)" fill="black"/>
<rect width="29" height="2" transform="matrix(1 0 0 -1 665 1439)" fill="black"/>
<rect width="24" height="2" transform="matrix(1 0 0 -1 401 1513)" fill="black"/>
<rect width="23" height="2" transform="matrix(1 0 0 -1 522 1513)" fill="black"/>
<rect width="30" height="2" transform="matrix(1 0 0 -1 724 1513)" fill="black"/>
<rect width="24" height="2" transform="matrix(1 0 0 -1 880 1513)" fill="black"/>
<rect x="796" y="1271" width="23" height="2" transform="rotate(90 796 1271)" fill="black"/>
<rect x="763" y="1340" width="23" height="2" transform="rotate(90 763 1340)" fill="black"/>
<rect x="763" y="1395" width="21" height="2" transform="rotate(90 763 1395)" fill="black"/>
<rect x="798" y="1237" width="34" height="6" transform="rotate(90 798 1237)" fill="black"/>
<rect x="798" y="1294" width="26" height="6" transform="rotate(90 798 1294)" fill="black"/>
<rect x="659" y="1211" width="18" height="6" transform="rotate(90 659 1211)" fill="black"/>
<rect x="659" y="1342" width="52" height="6" transform="rotate(90 659 1342)" fill="black"/>
<rect x="659" y="1417" width="18" height="6" transform="rotate(90 659 1417)" fill="black"/>
<rect x="659" y="1252" width="67" height="6" transform="rotate(90 659 1252)" fill="black"/>
<path d="M522 935V1445H502V935H522Z" fill="black"/>
<path d="M270 1445V1716H250V1445H270Z" fill="black"/>
<rect x="250" y="605" width="620" height="20" fill="black"/>
<path fill-rule="evenodd" clip-rule="evenodd" d="M948.17 1696H948.158H270V1716H946.056L1995.87 1939.15L2000.03 1919.58L949 1696.18V1696.18L948.17 1696Z" fill="black"/>
<rect x="1051.22" y="1528.39" width="25.0549" height="2" transform="rotate(12 1051.22 1528.39)" fill="black"/>
<rect x="969.016" y="1508.95" width="84.5978" height="6" transform="rotate(12 969.016 1508.95)" fill="black"/>
<rect x="1376.61" y="1597.6" width="24.5289" height="2" transform="rotate(12 1376.61 1597.6)" fill="black"/>
<rect x="1075.93" y="1531.68" width="308.201" height="6" transform="rotate(12 1075.93 1531.68)" fill="black"/>
<rect x="1552.06" y="1634.81" width="24.3155" height="2" transform="rotate(12 1552.06 1634.81)" fill="black"/>
<rect x="1400.65" y="1600.7" width="155.271" height="6" transform="rotate(12 1400.65 1600.7)" fill="black"/>
<rect x="1808.5" y="1689.27" width="24.6307" height="2" transform="rotate(12 1808.5 1689.27)" fill="black"/>
<rect x="1575.94" y="1637.96" width="238.809" height="6" transform="rotate(12 1575.94 1637.96)" fill="black"/>
<rect x="1832.55" y="1692.5" width="191.399" height="6" transform="rotate(12 1832.55 1692.5)" fill="black"/>
<rect x="1519.39" y="1531.57" width="37.7029" height="2" transform="rotate(12 1519.39 1531.57)" fill="black"/>
<rect x="1461.4" y="1519.61" width="34.8406" height="2" transform="rotate(12 1461.4 1519.61)" fill="black"/>
<rect x="1445.8" y="1514.07" width="16.5994" height="6" transform="rotate(12 1445.8 1514.07)" fill="black"/>
<rect x="1495.72" y="1524.68" width="24.7252" height="6" transform="rotate(12 1495.72 1524.68)" fill="black"/>
<rect x="1556.54" y="1537.61" width="215.428" height="6" transform="rotate(12 1556.54 1537.61)" fill="black"/>
<rect x="1470.25" y="1399" width="242.24" height="6" transform="rotate(12 1470.25 1399)" fill="black"/>
<rect x="1875.19" y="1632.56" width="23.657" height="2" transform="rotate(12 1875.19 1632.56)" fill="black"/>
<rect x="1856.34" y="1626.5" width="20.07" height="6" transform="rotate(12 1856.34 1626.5)" fill="black"/>
<rect x="1898.55" y="1635.47" width="138.316" height="6" transform="rotate(12 1898.55 1635.47)" fill="black"/>
<rect x="1907.25" y="1386" width="181.468" height="6" transform="rotate(12 1907.25 1386)" fill="black"/>
<rect x="1952.25" y="1174" width="181.468" height="6" transform="rotate(12 1952.25 1174)" fill="black"/>
<rect x="1996.25" y="967" width="181.468" height="6" transform="rotate(12 1996.25 967)" fill="black"/>
<rect x="1779" y="1155.04" width="77.3776" height="6" transform="rotate(12 1779 1155.04)" fill="black"/>
<rect x="1853.51" y="1176.65" width="414.983" height="6" transform="rotate(102 1853.51 1176.65)" fill="black"/>
<rect x="1877" y="1519.88" width="24.3178" height="2" transform="rotate(102 1877 1519.88)" fill="black"/>
<rect x="1874.05" y="1543.76" width="154.315" height="6" transform="rotate(102 1874.05 1543.76)" fill="black"/>
<rect x="1927.05" y="1285.13" width="23.7989" height="2" transform="rotate(102 1927.05 1285.13)" fill="black"/>
<rect x="1924.02" y="1308.69" width="216.684" height="6" transform="rotate(102 1924.02 1308.69)" fill="black"/>
<rect x="1981.48" y="1028.59" width="23.9918" height="2" transform="rotate(102 1981.48 1028.59)" fill="black"/>
<rect x="2012.81" y="890.965" width="141.508" height="6" transform="rotate(102 2012.81 890.965)" fill="black"/>
<rect x="1978.54" y="1052.17" width="238.998" height="6" transform="rotate(102 1978.54 1052.17)" fill="black"/>
<rect x="1889.06" y="1001.74" width="92.1551" height="6" transform="rotate(102 1889.06 1001.74)" fill="black"/>
<rect x="1561.03" y="1323.25" width="210.845" height="6" transform="rotate(102 1561.03 1323.25)" fill="black"/>
<rect x="1474.86" y="1405.89" width="111.954" height="6" transform="rotate(102 1474.86 1405.89)" fill="black"/>
<rect x="1393.74" y="1352.62" width="36.2262" height="2" transform="rotate(102 1393.74 1352.62)" fill="black"/>
<rect x="1399.97" y="1330.93" width="22.7745" height="6" transform="rotate(102 1399.97 1330.93)" fill="black"/>
<rect x="1387.8" y="1388.17" width="111.204" height="6" transform="rotate(102 1387.8 1388.17)" fill="black"/>
<rect x="1308.95" y="1326.23" width="155.383" height="6" transform="rotate(102 1308.95 1326.23)" fill="black"/>
<rect x="1706.15" y="1454.25" width="112.773" height="6" transform="rotate(102 1706.15 1454.25)" fill="black"/>
<rect x="1716.23" y="1673.65" width="181.842" height="6" transform="rotate(102 1716.23 1673.65)" fill="black"/>
<rect x="1496.96" y="1626.89" width="182.037" height="6" transform="rotate(102 1496.96 1626.89)" fill="black"/>
<rect x="1256.79" y="1576.18" width="28.2178" height="2" transform="rotate(102 1256.79 1576.18)" fill="black"/>
<rect x="1252.79" y="1604.11" width="153.557" height="6" transform="rotate(102 1252.79 1604.11)" fill="black"/>
<rect x="1201.72" y="1564.25" width="182.037" height="6" transform="rotate(102 1201.72 1564.25)" fill="black"/>
<rect x="1002.02" y="1521.84" width="183.473" height="6" transform="rotate(102 1002.02 1521.84)" fill="black"/>
<rect x="1776.12" y="1703.61" width="23.5235" height="2" transform="rotate(102 1776.12 1703.61)" fill="black"/>
<rect x="1781.68" y="1687.25" width="17.4804" height="6" transform="rotate(102 1781.68 1687.25)" fill="black"/>
<rect x="1773.25" y="1726.9" width="141.376" height="6" transform="rotate(102 1773.25 1726.9)" fill="black"/>
<rect x="1063.88" y="1432.89" width="307.656" height="6" transform="rotate(12 1063.88 1432.89)" fill="black"/>
<rect x="1303" y="1325" width="158" height="6" fill="black"/>
<rect x="948" y="1433" width="116" height="6" fill="black"/>
<rect x="942" y="997" width="529" height="6" fill="black"/>
<rect x="1544" y="996" width="33" height="6" fill="black"/>
<rect x="1600" y="996" width="40" height="6" fill="black"/>
<rect x="1663" y="996" width="87" height="6" fill="black"/>
<rect x="1773" y="996" width="11" height="6" fill="black"/>
<rect x="1805" y="996" width="37" height="6" fill="black"/>
<rect x="1842" y="998" width="23" height="2" fill="black"/>
<rect x="1784" y="998" width="21" height="2" fill="black"/>
<rect x="1750" y="998" width="23" height="2" fill="black"/>
<rect x="1640" y="998" width="23" height="2" fill="black"/>
<rect x="1577" y="998" width="23" height="2" fill="black"/>
<rect x="1865" y="996" width="37" height="6" fill="black"/>
<rect x="1512" y="931" width="207" height="6" fill="black"/>
<rect x="1518" y="861" width="124" height="6" fill="black"/>
<rect x="1518" y="802" width="78" height="6" fill="black"/>
<rect x="1428" y="885" width="6" height="6" fill="black"/>
<rect x="1355" y="885" width="42" height="6" fill="black"/>
<rect x="1397" y="887" width="31" height="2" fill="black"/>
<rect x="1355" y="1066" width="99" height="6" fill="black"/>
<rect x="1355" y="1123" width="99" height="6" fill="black"/>
<rect x="1642" y="868" width="57" height="6" fill="black"/>
<rect x="1705" y="820" width="24" height="6" fill="black"/>
<rect x="1729" y="822" width="24" height="2" fill="black"/>
<rect x="1753" y="820" width="14" height="6" fill="black"/>
<rect x="1773" y="868" width="33" height="6" fill="black"/>
<rect x="1806" y="870" width="23" height="2" fill="black"/>
<rect x="1869" y="870" width="23" height="2" fill="black"/>
<rect x="1928" y="870" width="23" height="2" fill="black"/>
<rect x="1829" y="868" width="40" height="6" fill="black"/>
<rect x="1892" y="868" width="37" height="6" fill="black"/>
<rect x="1951" y="868" width="56" height="6" fill="black"/>
<rect x="2013" y="823" width="19" height="6" fill="black"/>
<rect x="2032" y="825" width="23" height="2" fill="black"/>
<rect x="2055" y="823" width="139" height="6" fill="black"/>
<rect x="2064" y="931" width="8" height="6" fill="black"/>
<rect x="1988" y="931" width="53" height="6" fill="black"/>
<rect x="2041" y="933" width="23" height="2" fill="black"/>
<rect x="2009" y="891" width="17" height="2" transform="rotate(-90 2009 891)" fill="black"/>
<rect x="2072" y="893" width="122" height="6" fill="black"/>
<path d="M2072 893V931H2066V893H2072Z" fill="black"/>
<rect x="1561" y="1086" width="309" height="6" fill="black"/>
<rect x="1561" y="1155" width="218" height="6" fill="black"/>
<rect x="948" y="919" width="107" height="6" fill="black"/>
<rect x="1055" y="921" width="31" height="2" fill="black"/>
<rect x="1248" y="921" width="30" height="2" fill="black"/>
<rect x="1278" y="919" width="77" height="6" fill="black"/>
<rect x="1086" y="919" width="162" height="6" fill="black"/>
<rect x="948" y="1003" width="436" height="6" transform="rotate(90 948 1003)" fill="black"/>
<rect x="844" y="625" width="580" height="6" transform="rotate(90 844 625)" fill="black"/>
<rect x="948" y="270" width="655" height="6" transform="rotate(90 948 270)" fill="black"/>
<rect x="1355" y="1003" width="340" height="6" transform="rotate(90 1355 1003)" fill="black"/>
<rect x="1355" y="699" width="220" height="6" transform="rotate(90 1355 699)" fill="black"/>
<rect x="1440" y="699" width="192" height="6" transform="rotate(90 1440 699)" fill="black"/>
<rect x="1602" y="699" width="162" height="6" transform="rotate(90 1602 699)" fill="black"/>
<rect x="1642" y="867" width="64" height="6" transform="rotate(90 1642 867)" fill="black"/>
<rect x="1699" y="874" width="31" height="6" transform="rotate(90 1699 874)" fill="black"/>
<rect x="1697" y="905" width="20" height="2" transform="rotate(90 1697 905)" fill="black"/>
<rect x="1703" y="828" width="23" height="2" transform="rotate(90 1703 828)" fill="black"/>
<rect x="1699" y="925" width="6" height="6" transform="rotate(90 1699 925)" fill="black"/>
<rect x="1518" y="926" width="5" height="6" transform="rotate(90 1518 926)" fill="black"/>
<rect x="1518" y="831" width="60" height="6" transform="rotate(90 1518 831)" fill="black"/>
<rect x="1516" y="808" width="23" height="2" transform="rotate(90 1516 808)" fill="black"/>
<rect x="1516" y="737" width="23" height="2" transform="rotate(90 1516 737)" fill="black"/>
<rect x="1516" y="891" width="35" height="2" transform="rotate(90 1516 891)" fill="black"/>
<rect x="1518" y="699" width="37" height="6" transform="rotate(90 1518 699)" fill="black"/>
<rect x="1518" y="760" width="48" height="6" transform="rotate(90 1518 760)" fill="black"/>
<rect x="1705" y="851" width="23" height="6" transform="rotate(90 1705 851)" fill="black"/>
<rect x="1705" y="699" width="129" height="6" transform="rotate(90 1705 699)" fill="black"/>
<rect x="1773" y="699" width="175" height="6" transform="rotate(90 1773 699)" fill="black"/>
<rect x="1840" y="699" width="169" height="6" transform="rotate(90 1840 699)" fill="black"/>
<rect x="1912" y="699" width="169" height="6" transform="rotate(90 1912 699)" fill="black"/>
<rect x="2013" y="699" width="175" height="6" transform="rotate(90 2013 699)" fill="black"/>
<rect x="1460" y="1003" width="25" height="6" transform="rotate(90 1460 1003)" fill="black"/>
<rect x="1458" y="1028" width="22" height="2" transform="rotate(90 1458 1028)" fill="black"/>
<rect x="1458" y="1093" width="23" height="2" transform="rotate(90 1458 1093)" fill="black"/>
<rect x="1458" y="1142" width="23" height="2" transform="rotate(90 1458 1142)" fill="black"/>
<rect x="1460" y="1050" width="43" height="6" transform="rotate(90 1460 1050)" fill="black"/>
<rect x="1460" y="1116" width="26" height="6" transform="rotate(90 1460 1116)" fill="black"/>
<rect x="1460" y="1165" width="160" height="6" transform="rotate(90 1460 1165)" fill="black"/>
<rect x="1561" y="1155" width="169" height="6" transform="rotate(90 1561 1155)" fill="black"/>
<rect x="1561" y="1002" width="90" height="6" transform="rotate(90 1561 1002)" fill="black"/>
<rect x="1623" y="1002" width="84" height="6" transform="rotate(90 1623 1002)" fill="black"/>
<rect x="1719" y="1002" width="84" height="6" transform="rotate(90 1719 1002)" fill="black"/>
<rect x="1783" y="1002" width="84" height="6" transform="rotate(90 1783 1002)" fill="black"/>
<rect x="1820" y="1002" width="84" height="6" transform="rotate(90 1820 1002)" fill="black"/>
</svg>
