<svg width="1886" height="2188" viewBox="0 0 1886 2188" fill="none" xmlns="http://www.w3.org/2000/svg">
<rect width="1886" height="2188" fill="white"/>
<rect x="596" y="464" width="877" height="20" fill="black"/>
<path fill-rule="evenodd" clip-rule="evenodd" d="M1473 698V484H1453V694.26L1239.15 1700.36L1259.04 1704.58L1472.99 698.002L1472.98 698H1473Z" fill="black"/>
<rect x="531.257" y="1324.67" width="220.45" height="20.3339" transform="rotate(102 531.257 1324.67)" fill="black"/>
<rect x="549" y="707" width="90" height="20" transform="rotate(90 549 707)" fill="black"/>
<rect x="433" y="568" width="119" height="20" transform="rotate(90 433 568)" fill="black"/>
<rect x="616" y="484" width="84" height="20" transform="rotate(90 616 484)" fill="black"/>
<rect x="699" y="484" width="191" height="6" transform="rotate(90 699 484)" fill="black"/>
<rect x="777" y="710" width="5" height="6" transform="rotate(90 777 710)" fill="black"/>
<rect x="777" y="484" width="95" height="6" transform="rotate(90 777 484)" fill="black"/>
<rect x="777" y="602" width="73" height="6" transform="rotate(90 777 602)" fill="black"/>
<rect x="616" y="588" width="120" height="6" transform="rotate(90 616 588)" fill="black"/>
<rect x="823" y="786" width="327" height="6" transform="rotate(90 823 786)" fill="black"/>
<rect x="768" y="1029" width="49" height="6" transform="rotate(90 768 1029)" fill="black"/>
<rect x="766" y="1006" width="23" height="2" transform="rotate(90 766 1006)" fill="black"/>
<rect x="768" y="852" width="154" height="6" transform="rotate(90 768 852)" fill="black"/>
<rect x="760" y="804" width="48" height="6" transform="rotate(90 760 804)" fill="black"/>
<rect x="901" y="651" width="64" height="6" transform="rotate(90 901 651)" fill="black"/>
<rect x="882" y="786" width="84" height="6" transform="rotate(90 882 786)" fill="black"/>
<rect x="978" y="786" width="84" height="6" transform="rotate(90 978 786)" fill="black"/>
<rect x="1042" y="786" width="84" height="6" transform="rotate(90 1042 786)" fill="black"/>
<rect x="1081" y="786" width="84" height="6" transform="rotate(90 1081 786)" fill="black"/>
<rect x="891" y="484" width="161" height="6" transform="rotate(90 891 484)" fill="black"/>
<rect x="964" y="692" width="23" height="6" transform="rotate(90 964 692)" fill="black"/>
<rect x="964" y="635" width="37" height="6" transform="rotate(90 964 635)" fill="black"/>
<rect x="964" y="484" width="128" height="6" transform="rotate(90 964 484)" fill="black"/>
<rect x="1099" y="484" width="168" height="6" transform="rotate(90 1099 484)" fill="black"/>
<rect x="1166" y="484" width="168" height="6" transform="rotate(90 1166 484)" fill="black"/>
<rect x="1272" y="683" width="33" height="6" transform="rotate(90 1272 683)" fill="black"/>
<rect x="1270" y="661" width="22" height="2" transform="rotate(90 1270 661)" fill="black"/>
<rect x="1272" y="484" width="177" height="6" transform="rotate(90 1272 484)" fill="black"/>
<rect x="1015" y="610" width="42" height="6" transform="rotate(90 1015 610)" fill="black"/>
<rect x="694" y="1115" width="10" height="6" transform="rotate(90 694 1115)" fill="black"/>
<rect x="549" y="588" width="39" height="6" transform="rotate(90 549 588)" fill="black"/>
<rect x="549" y="650" width="37" height="6" transform="rotate(90 549 650)" fill="black"/>
<rect x="547" y="627" width="23" height="2" transform="rotate(90 547 627)" fill="black"/>
<rect x="775" y="675" width="35" height="2" transform="rotate(90 775 675)" fill="black"/>
<rect x="962" y="672" width="20" height="2" transform="rotate(90 962 672)" fill="black"/>
<rect x="962" y="612" width="23" height="2" transform="rotate(90 962 612)" fill="black"/>
<rect x="775" y="579" width="23" height="2" transform="rotate(90 775 579)" fill="black"/>
<path d="M687 669H693V675H687V669Z" fill="black"/>
<path d="M616 669H656V675H616V669Z" fill="black"/>
<path d="M656 671H687V673H656V671Z" fill="black"/>
<path d="M964 604H1015V610H964V604Z" fill="black"/>
<path d="M616 798H760V804H616V798Z" fill="black"/>
<path d="M823 870H1128V876H823V870Z" fill="black"/>
<path d="M803 780H836V786H803V780Z" fill="black"/>
<path d="M836 782H859V784H836V782Z" fill="black"/>
<path d="M859 780H899V786H859V780Z" fill="black"/>
<path d="M899 782H923V784H899V782Z" fill="black"/>
<path d="M1009 782H1032V784H1009V782Z" fill="black"/>
<path d="M1043 782H1064V784H1043V782Z" fill="black"/>
<path d="M1101 782H1124V784H1101V782Z" fill="black"/>
<path d="M923 780H1009V786H923V780Z" fill="black"/>
<path d="M1032 780H1043V786H1032V780Z" fill="black"/>
<path d="M1064 780H1101V786H1064V780Z" fill="black"/>
<path d="M1124 780H1161V786H1124V780Z" fill="black"/>
<path d="M771 715H978V721H771V715Z" fill="black"/>
<path d="M1009 652H1049V658H1009V652Z" fill="black"/>
<path d="M1049 654H1072V656H1049V654Z" fill="black"/>
<path d="M1115 654H1138V656H1115V654Z" fill="black"/>
<path d="M1196 654H1219V656H1196V654Z" fill="black"/>
<path d="M1281 701H1304V703H1281V701Z" fill="black"/>
<path d="M1072 652H1115V658H1072V652Z" fill="black"/>
<path d="M1138 652H1196V658H1138V652Z" fill="black"/>
<path d="M1219 652H1266V658H1219V652Z" fill="black"/>
<path d="M1272 699H1281V705H1272V699Z" fill="black"/>
<path d="M1304 699H1452V705H1304V699Z" fill="black"/>
<path d="M1247 716H1272V722H1247V716Z" fill="black"/>
<path d="M777 645H958V651H777V645Z" fill="black"/>
<path d="M616 1072H762V1078H616V1072Z" fill="black"/>
<path d="M718 1111H742V1113H718V1111Z" fill="black"/>
<path d="M742 1109H760V1115H742V1109Z" fill="black"/>
<path d="M688 1109H718V1115H688V1109Z" fill="black"/>
<path d="M616 1124H689V1130H616V1124Z" fill="black"/>
<path d="M650 1211H674V1217H650V1211Z" fill="black"/>
<path d="M754 852H762V858H754V852Z" fill="black"/>
<rect x="616" y="797" width="333" height="20" transform="rotate(90 616 797)" fill="black"/>
<rect x="413" y="687" width="136" height="20" fill="black"/>
<rect x="433" y="568" width="183" height="20" fill="black"/>
<rect x="549" y="777" width="67" height="20" fill="black"/>
<rect x="542" y="1110" width="54" height="20" fill="black"/>
<path fill-rule="evenodd" clip-rule="evenodd" d="M1259.03 1704.58L465.51 1535.91L461.352 1555.48L1254.87 1724.15L1259.03 1704.58Z" fill="black"/>
<circle cx="542" cy="1219" r="109" fill="black"/>
<circle cx="541.5" cy="1218.5" r="84.5" fill="white"/>
<rect x="1148.15" y="784.248" width="589.954" height="6" transform="rotate(102 1148.15 784.248)" fill="black"/>
<rect x="822.892" y="1112.1" width="89.2675" height="6" transform="rotate(102 822.892 1112.1)" fill="black"/>
<rect x="735.17" y="1184.21" width="123.797" height="6" transform="rotate(102 735.17 1184.21)" fill="black"/>
<rect x="800.034" y="1203.95" width="112.269" height="6" transform="rotate(102 800.034 1203.95)" fill="black"/>
<rect x="965.039" y="1239.06" width="112.148" height="6" transform="rotate(102 965.039 1239.06)" fill="black"/>
<rect x="975.067" y="1457.51" width="182.911" height="6" transform="rotate(102 975.067 1457.51)" fill="black"/>
<rect x="867.959" y="1434.96" width="182.557" height="6" transform="rotate(102 867.959 1434.96)" fill="black"/>
<rect x="755.825" y="1411.25" width="182.426" height="6" transform="rotate(102 755.825 1411.25)" fill="black"/>
<rect x="644.335" y="1387.42" width="182.656" height="6" transform="rotate(102 644.335 1387.42)" fill="black"/>
<rect x="735.062" y="1184.17" width="236.412" height="6" transform="rotate(12 735.062 1184.17)" fill="black"/>
<rect x="777.929" y="1315.86" width="37.6539" height="2" transform="rotate(12 777.929 1315.86)" fill="black"/>
<rect x="719.646" y="1303.32" width="36.3781" height="2" transform="rotate(12 719.646 1303.32)" fill="black"/>
<rect x="710.446" y="1299.47" width="10.0004" height="6" transform="rotate(12 710.446 1299.47)" fill="black"/>
<rect x="755.322" y="1309.01" width="23.9057" height="6" transform="rotate(12 755.322 1309.01)" fill="black"/>
<rect x="815.037" y="1321.7" width="129.492" height="6" transform="rotate(12 815.037 1321.7)" fill="black"/>
<rect x="908.165" y="1439.72" width="24.6573" height="2" transform="rotate(12 908.165 1439.72)" fill="black"/>
<rect x="932.524" y="1442.78" width="55.0266" height="6" transform="rotate(12 932.524 1442.78)" fill="black"/>
<rect x="812.503" y="1419.38" width="23.691" height="2" transform="rotate(12 812.503 1419.38)" fill="black"/>
<rect x="835.941" y="1422.25" width="74.8372" height="6" transform="rotate(12 835.941 1422.25)" fill="black"/>
<rect x="718.937" y="1399.35" width="24.5238" height="2" transform="rotate(12 718.937 1399.35)" fill="black"/>
<rect x="603.398" y="1374.94" width="23.301" height="2" transform="rotate(12 603.398 1374.94)" fill="black"/>
<rect x="524.248" y="1356" width="81.4826" height="6" transform="rotate(12 524.248 1356)" fill="black"/>
<rect x="626.348" y="1377.7" width="95.3197" height="6" transform="rotate(12 626.348 1377.7)" fill="black"/>
<rect x="743.084" y="1402.52" width="72.0769" height="6" transform="rotate(12 743.084 1402.52)" fill="black"/>
<rect x="965.887" y="1499.19" width="122.361" height="6" transform="rotate(12 965.887 1499.19)" fill="black"/>
<rect x="1101.08" y="1478.18" width="181.517" height="6" transform="rotate(12 1101.08 1478.18)" fill="black"/>
<rect x="1100.42" y="1587.4" width="25.3617" height="2" transform="rotate(12 1100.42 1587.4)" fill="black"/>
<rect x="1079.25" y="1581" width="22.2997" height="6" transform="rotate(12 1079.25 1581)" fill="black"/>
<rect x="1125.3" y="1590.79" width="134.44" height="6" transform="rotate(12 1125.3 1590.79)" fill="black"/>
<rect x="1132.05" y="1332.96" width="182.734" height="6" transform="rotate(12 1132.05 1332.96)" fill="black"/>
<rect x="1166.25" y="1170" width="182.734" height="6" transform="rotate(12 1166.25 1170)" fill="black"/>
<rect x="1211.25" y="957" width="182.734" height="6" transform="rotate(12 1211.25 957)" fill="black"/>
<rect x="1251.25" y="768" width="182.734" height="6" transform="rotate(12 1251.25 768)" fill="black"/>
<rect x="942.728" y="1343.56" width="84.6229" height="6" transform="rotate(12 942.728 1343.56)" fill="black"/>
<rect x="680.937" y="1175.6" width="23.2856" height="2" transform="rotate(102 680.937 1175.6)" fill="black"/>
<rect x="678.144" y="1198.61" width="18.7898" height="6" transform="rotate(102 678.144 1198.61)" fill="black"/>
<rect x="693.946" y="1124.27" width="53.0037" height="6" transform="rotate(102 693.946 1124.27)" fill="black"/>
<rect x="767.889" y="1078.25" width="37.5781" height="6" transform="rotate(102 767.889 1078.25)" fill="black"/>
<rect x="1256.27" y="740.126" width="23.344" height="2" transform="rotate(102 1256.27 740.126)" fill="black"/>
<rect width="25.2811" height="2" transform="matrix(0.207912 -0.978148 -0.978148 -0.207912 1235.81 835.894)" fill="black"/>
<rect x="1253.34" y="763.059" width="51.6499" height="6" transform="rotate(102 1253.34 763.059)" fill="black"/>
<rect x="1186" y="1070.17" width="22.6836" height="2" transform="rotate(102 1186 1070.17)" fill="black"/>
<rect x="1237.87" y="835.829" width="240.547" height="6" transform="rotate(102 1237.87 835.829)" fill="black"/>
<rect x="1148.85" y="1245.38" width="23.924" height="2" transform="rotate(102 1148.85 1245.38)" fill="black"/>
<rect x="1183.33" y="1092.39" width="157.126" height="6" transform="rotate(102 1183.33 1092.39)" fill="black"/>
<rect x="1113.95" y="1408.04" width="23.43" height="2" transform="rotate(102 1113.95 1408.04)" fill="black"/>
<rect x="1094.58" y="1500.29" width="22.9588" height="2" transform="rotate(102 1094.58 1500.29)" fill="black"/>
<rect x="1148.39" y="1502.01" width="22.9945" height="2" transform="rotate(102 1148.39 1502.01)" fill="black"/>
<rect x="1111.34" y="1431.08" width="71.3461" height="6" transform="rotate(102 1111.34 1431.08)" fill="black"/>
<rect x="1145.64" y="1524.56" width="69.3892" height="6" transform="rotate(102 1145.64 1524.56)" fill="black"/>
<rect x="1151.95" y="1494.87" width="8.01122" height="6" transform="rotate(102 1151.95 1494.87)" fill="black"/>
<rect x="1083.71" y="1551.55" width="22.498" height="2" transform="rotate(102 1083.71 1551.55)" fill="black"/>
<rect x="1091.81" y="1522.96" width="29.7887" height="6" transform="rotate(102 1091.81 1522.96)" fill="black"/>
<rect x="1081.02" y="1573.74" width="91.0986" height="6" transform="rotate(102 1081.02 1573.74)" fill="black"/>
<rect x="1145.82" y="1268.89" width="143.016" height="6" transform="rotate(102 1145.82 1268.89)" fill="black"/>
<rect x="1262.22" y="721.264" width="20.0548" height="6" transform="rotate(102 1262.22 721.264)" fill="black"/>
<rect x="1262.22" y="721.264" width="20.0548" height="6" transform="rotate(102 1262.22 721.264)" fill="black"/>
</svg>
